<?xml version="1.0" standalone="no"?>
<!DOCTYPE svg PUBLIC "-//W3C//DTD SVG 1.1//EN" "http://www.w3.org/Graphics/SVG/1.1/DTD/svg11.dtd" >
<svg xmlns="http://www.w3.org/2000/svg" xmlns:xlink="http://www.w3.org/1999/xlink" version="1.1">
<metadata>
Created by FontForge 20161003 at Thu Feb 23 08:55:44 2017
 By www-data
Copyright (c) 2012 by UNIQLO CO., LTD. All rights reserved.
</metadata>
<defs>
<font id="UniqloPro-Light" horiz-adv-x="528" >
  <font-face 
    font-family="Uniqlo Pro"
    font-weight="300"
    font-stretch="normal"
    units-per-em="1000"
    panose-1="2 11 5 3 2 2 2 3 2 4"
    ascent="750"
    descent="-250"
    x-height="493"
    cap-height="696"
    bbox="-36 -210 875 928"
    underline-thickness="20"
    underline-position="-100"
    stemh="77"
    stemv="77"
    unicode-range="U+0020-FB04"
  />
<missing-glyph horiz-adv-x="333" 
 />
    <glyph glyph-name=".notdef" horiz-adv-x="333" 
 />
    <glyph glyph-name=".null" horiz-adv-x="0" 
 />
    <glyph glyph-name="CR" horiz-adv-x="0" 
 />
    <glyph glyph-name="space" unicode=" " horiz-adv-x="333" 
 />
    <glyph glyph-name="space" unicode="&#xa0;" horiz-adv-x="333" 
 />
    <glyph glyph-name="exclam" unicode="!" horiz-adv-x="148" 
d="M118 84v-84h-84v84h84zM38 696h77l-16 -541h-46z" />
    <glyph glyph-name="quotedbl" unicode="&#x22;" horiz-adv-x="306" 
d="M264 696v-84l-84 -84v168h84zM125 696v-84l-84 -84v168h84z" />
    <glyph glyph-name="numbersign" unicode="#" horiz-adv-x="509" 
d="M188 270h112l22 156h-111zM333 503l29 193h62l-28 -193h83v-77h-94l-23 -156h84v-77h-95l-28 -193h-63l28 193h-111l-28 -193h-63l28 193h-84v77h95l23 156h-84v77h95l28 193h63l-28 -193h111z" />
    <glyph glyph-name="dollar" unicode="$" horiz-adv-x="444" 
d="M244 80c59 13 94 59 94 119c0 51 -31 88 -94 113v-232zM198 618c-59 -11 -97 -51 -97 -103v-3c0 -46 30 -80 89 -102l8 -3v211zM198 8c-73 5 -144 59 -173 128l64 27c25 -49 61 -77 109 -84v251l-28 12c-96 41 -139 91 -139 172c0 91 70 163 167 174v81h46v-81
c71 -8 143 -59 170 -128l-66 -27c-23 47 -60 77 -104 84v-229l29 -12c92 -39 135 -92 135 -176c0 -99 -67 -178 -164 -191v-82h-46v81z" />
    <glyph glyph-name="percent" unicode="%" horiz-adv-x="463" 
d="M428 696l-322 -696h-70l322 696h70zM296 93c0 -23 16 -39 39 -39c21 0 39 18 39 39v72c0 23 -16 40 -39 40s-39 -17 -39 -40v-72zM428 93c0 -48 -42 -93 -93 -93c-52 0 -92 47 -92 93v72c0 52 40 94 92 94c51 0 93 -42 93 -94v-72zM90 531c0 -23 16 -40 39 -40
c21 0 38 17 38 40v72c0 23 -17 39 -38 39c-23 0 -39 -16 -39 -39v-72zM221 531c0 -52 -42 -94 -92 -94c-51 0 -93 42 -93 94v72c0 51 43 93 92 93c51 0 93 -42 93 -93v-72z" />
    <glyph glyph-name="ampersand" unicode="&#x26;" horiz-adv-x="602" 
d="M202 344c-68 -41 -97 -76 -97 -131c0 -81 65 -143 153 -143c51 0 102 19 145 54l-191 226zM268 462c39 23 59 50 59 81c0 47 -35 84 -82 84c-45 0 -81 -36 -81 -83c0 -19 9 -40 28 -63l36 -42zM602 0h-93l-59 70c-58 -47 -123 -70 -194 -70c-122 0 -221 95 -221 212
c0 91 56 146 132 192l-29 33c-32 36 -44 68 -44 107c0 84 68 152 152 152c85 0 151 -66 151 -151c0 -59 -31 -107 -93 -142l-30 -17l177 -209c27 39 38 77 42 133h69c-3 -71 -20 -130 -63 -189z" />
    <glyph glyph-name="quotesingle" unicode="'" horiz-adv-x="167" 
d="M125 696v-84l-84 -84v168h84z" />
    <glyph glyph-name="parenleft" unicode="(" horiz-adv-x="268" 
d="M235 0c-113 5 -196 85 -196 196v304c0 109 83 193 196 196v-77c-68 -3 -119 -52 -119 -119v-304c0 -67 51 -116 119 -119v-77z" />
    <glyph glyph-name="parenright" unicode=")" horiz-adv-x="268" 
d="M34 77c68 3 119 52 119 119v304c0 67 -51 116 -119 119v77c113 -3 196 -87 196 -196v-304c0 -111 -83 -191 -196 -196v77z" />
    <glyph glyph-name="asterisk" unicode="*" horiz-adv-x="306" 
d="M284 508l-23 -41l-86 50v-99h-46v99l-85 -50l-24 41l86 49l-86 49l23 41l86 -50v99h46v-99l86 50l23 -41l-86 -49z" />
    <glyph glyph-name="plus" unicode="+" 
d="M496 385v-74h-195v-195h-74v195h-195v74h195v195h74v-195h195z" />
    <glyph glyph-name="comma" unicode="," horiz-adv-x="167" 
d="M125 84v-84l-84 -84v168h84z" />
    <glyph glyph-name="hyphen" unicode="-" 
d="M32 310v77h464v-77h-464z" />
    <glyph glyph-name="period" unicode="." horiz-adv-x="167" 
d="M126 84v-84h-84v84h84z" />
    <glyph glyph-name="slash" unicode="/" horiz-adv-x="324" 
d="M308 696l-213 -696h-77l213 696h77z" />
    <glyph glyph-name="zero" unicode="0" horiz-adv-x="463" 
d="M113 189c0 -66 53 -119 119 -119s119 53 119 119v318c0 66 -53 119 -119 119s-119 -53 -119 -119v-318zM36 506c0 109 88 197 196 197s196 -88 196 -197v-316c0 -109 -88 -197 -196 -197s-196 88 -196 197v316z" />
    <glyph glyph-name="one" unicode="1" horiz-adv-x="463" 
d="M298 696v-696h-77v619h-111v77h188z" />
    <glyph glyph-name="two" unicode="2" horiz-adv-x="463" 
d="M319 426c21 25 31 51 31 79c0 67 -51 121 -118 121s-116 -51 -119 -119h-77c3 111 87 196 196 196c108 0 196 -88 196 -195c0 -47 -17 -91 -51 -132l-250 -299h301v-77h-392v77z" />
    <glyph glyph-name="three" unicode="3" horiz-adv-x="463" 
d="M43 515c3 107 85 188 189 188s189 -85 189 -188c0 -57 -27 -114 -71 -149c53 -35 88 -101 88 -169c0 -112 -94 -204 -206 -204c-115 0 -200 88 -205 205h77c5 -75 56 -128 129 -128c70 0 128 58 128 128s-57 128 -129 128h-52v77h52c61 0 112 51 112 112
c0 60 -51 111 -112 111c-63 0 -109 -46 -112 -111h-77z" />
    <glyph glyph-name="four" unicode="4" horiz-adv-x="463" 
d="M315 186v434l-223 -434h223zM450 109h-58v-109h-77v109h-300v70l266 517h111v-510h58v-77z" />
    <glyph glyph-name="five" unicode="5" horiz-adv-x="463" 
d="M399 696v-77h-290v-191c39 37 74 51 122 51c109 0 197 -88 197 -196v-94c0 -108 -88 -196 -196 -196s-191 82 -196 189h77c7 -67 55 -112 119 -112c66 0 119 54 119 119v94c0 66 -53 119 -119 119c-59 0 -104 -37 -117 -97h-79v391h363z" />
    <glyph glyph-name="six" unicode="6" horiz-adv-x="463" 
d="M351 224c0 68 -54 119 -123 119c-64 0 -115 -51 -115 -119v-36c0 -64 54 -118 119 -118c66 0 119 54 119 118v36zM167 408c23 9 35 12 63 12c109 0 198 -88 198 -196v-36c0 -108 -88 -195 -196 -195s-196 87 -196 195v36c0 39 11 83 34 132l153 340h78z" />
    <glyph glyph-name="seven" unicode="7" horiz-adv-x="463" 
d="M418 696v-77l-217 -619h-78l218 619h-300v77h377z" />
    <glyph glyph-name="eight" unicode="8" horiz-adv-x="463" 
d="M235 326c-73 0 -131 -56 -131 -127c0 -72 57 -129 129 -129c70 0 128 58 128 128s-58 128 -126 128zM234 627c-64 0 -114 -49 -114 -111c0 -63 51 -113 112 -113s112 51 112 112s-49 112 -110 112zM349 366c57 -41 89 -100 89 -168c0 -113 -92 -205 -205 -205
c-112 0 -206 92 -206 205c0 68 32 128 88 168c-48 41 -72 90 -72 149c0 104 85 189 189 189s189 -85 189 -189c0 -59 -24 -108 -72 -149z" />
    <glyph glyph-name="nine" unicode="9" horiz-adv-x="463" 
d="M113 471c0 -68 54 -119 123 -119c67 0 115 51 115 119v36c0 66 -54 119 -119 119s-119 -54 -119 -119v-36zM297 288c-21 -11 -36 -13 -63 -13c-109 0 -198 88 -198 196v36c0 108 88 196 196 196s196 -88 196 -196v-36c0 -39 -11 -83 -34 -132l-153 -339h-78z" />
    <glyph glyph-name="colon" unicode=":" horiz-adv-x="167" 
d="M126 348v-84h-84v84h84zM126 84v-84h-84v84h84z" />
    <glyph glyph-name="semicolon" unicode=";" horiz-adv-x="167" 
d="M125 348v-84h-84v84h84zM125 84v-84l-84 -84v168h84z" />
    <glyph glyph-name="less" unicode="&#x3c;" 
d="M32 397l464 204v-84l-385 -169l385 -169v-85l-464 205v98z" />
    <glyph glyph-name="equal" unicode="=" 
d="M496 196h-464v77h464v-77zM496 423h-464v77h464v-77z" />
    <glyph glyph-name="greater" unicode="&#x3e;" 
d="M32 94v85l385 169l-385 169v84l464 -204v-98z" />
    <glyph glyph-name="question" unicode="?" horiz-adv-x="463" 
d="M273 84v-84h-84v84h84zM35 507c5 115 87 196 196 196c108 0 196 -89 196 -198c0 -40 -13 -77 -38 -112l-105 -142c-11 -17 -14 -27 -14 -84v-12h-77c0 86 1 102 20 127l109 146c19 26 28 52 28 77c0 68 -51 121 -119 121c-66 0 -116 -50 -119 -119h-77z" />
    <glyph glyph-name="at" unicode="@" horiz-adv-x="759" 
d="M475 378c0 51 -43 94 -95 94c-53 0 -96 -42 -96 -95v-58c0 -52 43 -95 95 -95c53 0 96 43 96 95v59zM539 319c0 -37 26 -66 61 -66c41 0 63 35 63 99c0 153 -128 280 -283 280c-156 0 -284 -128 -284 -284s127 -284 282 -284c39 0 71 7 112 23l25 -60
c-44 -19 -84 -27 -132 -27c-195 0 -351 155 -351 348c0 192 156 348 348 348c190 0 348 -157 348 -345c0 -99 -50 -162 -130 -162c-36 0 -66 13 -90 38c-28 -43 -77 -68 -129 -68c-88 0 -159 72 -159 160v58c0 90 70 160 161 160c39 0 66 -11 94 -35v35h64v-218z" />
    <glyph glyph-name="A" unicode="A" horiz-adv-x="602" 
d="M301 591l-124 -359h249zM150 155l-54 -155h-81l247 696h78l247 -696h-81l-54 155h-302z" />
    <glyph glyph-name="B" unicode="B" horiz-adv-x="546" 
d="M319 387c67 0 118 51 118 116s-51 116 -118 116h-192v-232h192zM127 77h192c67 0 118 51 118 116s-51 116 -118 116h-192v-232zM321 696c105 0 192 -86 192 -193c0 -61 -26 -113 -78 -155c52 -41 78 -92 78 -155c0 -106 -87 -193 -192 -193h-271v696h271z" />
    <glyph glyph-name="C" unicode="C" 
d="M418 471c-3 91 -67 155 -154 155c-86 0 -155 -69 -155 -155v-246c0 -84 69 -155 155 -155c87 0 151 64 154 155h78c-1 -27 -3 -40 -8 -60c-27 -102 -121 -172 -224 -172c-127 0 -232 105 -232 232v246c0 129 105 232 232 232c103 0 197 -70 224 -172c5 -20 7 -33 8 -60
h-78z" />
    <glyph glyph-name="D" unicode="D" horiz-adv-x="546" 
d="M282 77c86 0 155 69 155 155v232c0 86 -69 155 -155 155h-155v-542h155zM282 696c129 0 232 -103 232 -232v-232c0 -129 -103 -232 -232 -232h-232v696h232z" />
    <glyph glyph-name="E" unicode="E" horiz-adv-x="546" 
d="M128 619v-232h271v-78h-271v-232h387v-77h-464v696h464v-77h-387z" />
    <glyph glyph-name="F" unicode="F" horiz-adv-x="537" 
d="M515 696v-77h-387v-232h271v-77h-271v-310h-77v696h464z" />
    <glyph glyph-name="G" unicode="G" 
d="M420 471c-3 91 -69 155 -155 155s-155 -69 -155 -155v-246c0 -84 69 -155 155 -155c64 0 121 38 144 98c7 19 11 37 11 65v22h-155v77h232v-100c0 -136 -100 -239 -232 -239c-127 0 -232 105 -232 232v246c0 129 105 232 232 232c105 0 197 -70 224 -172
c5 -20 7 -33 8 -60h-77z" />
    <glyph glyph-name="H" unicode="H" horiz-adv-x="565" 
d="M127 696v-309h310v309h77v-696h-77v310h-310v-310h-77v696h77z" />
    <glyph glyph-name="I" unicode="I" horiz-adv-x="176" 
d="M126 696v-696h-77v696h77z" />
    <glyph glyph-name="J" unicode="J" 
d="M480 696v-471c0 -127 -103 -232 -232 -232c-105 0 -194 70 -224 172c-5 20 -7 33 -8 60h78c3 -91 67 -155 154 -155c86 0 155 71 155 155v471h77z" />
    <glyph glyph-name="K" unicode="K" 
d="M429 696h91l-239 -324l233 -372h-89l-192 307l-106 -145v-162h-77v696h77v-413z" />
    <glyph glyph-name="L" unicode="L" horiz-adv-x="546" 
d="M128 696v-619h387v-77h-464v696h77z" />
    <glyph glyph-name="M" unicode="M" horiz-adv-x="611" 
d="M123 516v-516h-73v696h79l176 -486l176 486h79v-696h-73v516l-143 -400h-78z" />
    <glyph glyph-name="N" unicode="N" horiz-adv-x="565" 
d="M128 696l310 -549v549h77v-696h-77l-310 549v-549h-77v696h77z" />
    <glyph glyph-name="O" unicode="O" 
d="M419 471c0 86 -69 155 -155 155s-155 -69 -155 -155v-246c0 -84 71 -155 155 -155s155 71 155 155v246zM32 471c0 129 105 232 232 232c129 0 232 -103 232 -232v-246c0 -127 -103 -232 -232 -232c-127 0 -232 105 -232 232v246z" />
    <glyph glyph-name="P" unicode="P" horiz-adv-x="537" 
d="M281 309c84 0 155 69 155 155s-69 155 -155 155h-155v-310h155zM281 696c129 0 232 -103 232 -232c0 -127 -103 -232 -232 -232h-155v-232h-77v696h232z" />
    <glyph glyph-name="Q" unicode="Q" 
d="M419 471c0 86 -69 155 -155 155s-155 -69 -155 -155v-246c0 -84 71 -155 155 -155s155 71 155 155v246zM496 -116h-77l-65 127c-29 -12 -58 -18 -89 -18c-128 0 -233 103 -233 232v246c0 129 105 232 232 232c129 0 232 -103 232 -232v-246c0 -69 -31 -135 -83 -178z" />
    <glyph glyph-name="R" unicode="R" horiz-adv-x="537" 
d="M298 340c77 0 140 63 140 140c0 76 -63 139 -140 139h-170v-279h170zM515 0h-84l-131 263h-172v-263h-77v696h247c120 0 217 -97 217 -217c0 -88 -55 -169 -138 -201z" />
    <glyph glyph-name="S" unicode="S" horiz-adv-x="472" 
d="M87 164c37 -63 87 -94 152 -94c69 0 118 49 118 121c0 52 -28 88 -95 117l-98 43c-92 40 -133 95 -133 171c0 105 81 181 192 181c100 0 175 -46 226 -139l-70 -31c-37 61 -91 93 -155 93c-68 0 -116 -42 -116 -101c0 -45 23 -75 86 -102l103 -45
c96 -43 137 -100 137 -188c0 -116 -82 -197 -198 -197c-95 0 -169 48 -220 144z" />
    <glyph glyph-name="T" unicode="T" 
d="M496 696v-77h-194v-619h-77v619h-193v77h464z" />
    <glyph glyph-name="U" unicode="U" horiz-adv-x="565" 
d="M127 696v-471c0 -84 71 -155 155 -155s155 71 155 155v471h77v-471c0 -127 -103 -232 -232 -232c-127 0 -232 105 -232 232v471h77z" />
    <glyph glyph-name="V" unicode="V" horiz-adv-x="500" 
d="M405 696h77l-190 -696h-84l-190 696h78l154 -576z" />
    <glyph glyph-name="W" unicode="W" horiz-adv-x="833" 
d="M586 132l156 564h77l-198 -696h-76l-128 550l-128 -550h-76l-199 696h77l156 -564l132 564h76z" />
    <glyph glyph-name="X" unicode="X" horiz-adv-x="491" 
d="M395 696h83l-190 -348l190 -348h-83l-149 272l-149 -272h-83l190 348l-190 348h83l149 -272z" />
    <glyph glyph-name="Y" unicode="Y" horiz-adv-x="491" 
d="M284 0h-78v312l-193 384h81l151 -307l151 307h81l-193 -384v-312z" />
    <glyph glyph-name="Z" unicode="Z" 
d="M495 619l-379 -542h379v-77h-464v77l379 542h-379v77h464v-77z" />
    <glyph glyph-name="bracketleft" unicode="[" horiz-adv-x="315" 
d="M279 696v-77h-155v-542h155v-77h-232v696h232z" />
    <glyph glyph-name="backslash" unicode="\" horiz-adv-x="324" 
d="M308 0h-77l-213 696h77z" />
    <glyph glyph-name="bracketright" unicode="]" horiz-adv-x="315" 
d="M268 0h-232v77h155v542h-155v77h232v-696z" />
    <glyph glyph-name="asciicircum" unicode="^" horiz-adv-x="389" 
d="M229 696l147 -290h-70l-112 222l-111 -222h-70l147 290h69z" />
    <glyph glyph-name="underscore" unicode="_" horiz-adv-x="343" 
d="M314 77v-77h-286v77h286z" />
    <glyph glyph-name="grave" unicode="`" horiz-adv-x="185" 
d="M158 566h-55l-87 130h70z" />
    <glyph glyph-name="a" unicode="a" horiz-adv-x="444" 
d="M174 219c-41 0 -74 -33 -74 -74s33 -74 74 -74h42c68 0 119 64 119 148h-161zM335 309c0 64 -54 118 -118 118c-47 0 -89 -29 -108 -73l-66 27c32 73 98 117 175 117c105 0 188 -85 188 -189v-309h-72v61c-30 -41 -69 -61 -118 -61h-42c-80 0 -145 65 -145 145
s65 145 145 145h161v19z" />
    <glyph glyph-name="b" unicode="b" horiz-adv-x="444" 
d="M112 188c0 -64 54 -117 118 -117s118 53 118 117v116c0 64 -54 118 -118 118s-118 -54 -118 -118v-116zM42 696h70v-249c33 31 73 46 118 46c104 0 189 -85 189 -189v-116c0 -103 -85 -188 -189 -188c-46 0 -85 15 -118 46v-46h-70v696z" />
    <glyph glyph-name="c" unicode="c" horiz-adv-x="435" 
d="M335 309c-3 68 -52 118 -118 118c-64 0 -117 -54 -117 -118v-125c0 -64 53 -118 117 -118c66 0 115 50 118 118h71c-5 -110 -83 -189 -189 -189c-103 0 -188 85 -188 189v125c0 104 85 189 188 189c106 0 184 -79 189 -189h-71z" />
    <glyph glyph-name="d" unicode="d" horiz-adv-x="444" 
d="M97 188c0 -64 54 -117 118 -117s118 53 118 117v116c0 64 -54 118 -118 118s-118 -54 -118 -118v-116zM333 0v46c-33 -31 -72 -46 -118 -46c-104 0 -189 85 -189 188v116c0 104 85 189 189 189c45 0 85 -15 118 -46v249h70v-696h-70z" />
    <glyph glyph-name="e" unicode="e" horiz-adv-x="435" 
d="M336 306c0 69 -53 121 -117 121c-68 0 -115 -50 -118 -121h235zM101 184c0 -64 53 -118 117 -118c34 0 63 13 86 38l50 -51c-36 -39 -84 -58 -136 -58c-103 0 -188 85 -188 189v125c0 104 85 189 188 189c104 0 189 -85 189 -189v-71h-306v-54z" />
    <glyph glyph-name="f" unicode="f" horiz-adv-x="296" 
d="M158 0h-71v406h-58v71h58v90c0 72 57 129 129 129h58v-71h-58c-33 0 -58 -25 -58 -58v-90h100v-71h-100v-406z" />
    <glyph glyph-name="g" unicode="g" horiz-adv-x="444" 
d="M335 304c0 64 -54 118 -118 118s-118 -54 -118 -118v-115c0 -64 54 -118 118 -118s118 54 118 118v115zM405 -14c0 -104 -85 -189 -188 -189c-52 0 -97 19 -134 56l48 53c25 -25 53 -38 86 -38c64 0 118 54 118 118v60c-33 -31 -73 -46 -118 -46c-104 0 -189 85 -189 189
v115c0 104 89 189 189 189c55 0 93 -21 118 -46v46h70v-507z" />
    <glyph glyph-name="h" unicode="h" horiz-adv-x="463" 
d="M43 696h71v-249c33 31 73 46 118 46c103 0 188 -85 188 -189v-304h-71v304c0 64 -53 118 -117 118s-118 -54 -118 -118v-304h-71v696z" />
    <glyph glyph-name="i" unicode="i" horiz-adv-x="167" 
d="M125 696v-84h-84v84h84zM118 493v-493h-71v493h71z" />
    <glyph glyph-name="j" unicode="j" horiz-adv-x="194" 
d="M140 696v-84h-84v84h84zM134 493v-567c0 -72 -58 -129 -131 -129h-29v71h29c35 0 60 25 60 58v567h71z" />
    <glyph glyph-name="k" unicode="k" horiz-adv-x="463" 
d="M450 0h-84l-136 245l-115 -134v-111h-71v696h71v-482l239 279h90l-166 -193z" />
    <glyph glyph-name="l" unicode="l" horiz-adv-x="204" 
d="M118 129c0 -32 26 -58 58 -58h29v-71h-29c-72 0 -129 57 -129 129v567h71v-567z" />
    <glyph glyph-name="m" unicode="m" horiz-adv-x="768" 
d="M112 445c33 32 72 48 118 48c61 0 121 -31 154 -79c36 51 93 79 154 79c103 0 188 -85 188 -189v-304h-70v304c0 66 -54 119 -118 119c-66 0 -119 -53 -119 -119v-304h-70v306c0 64 -54 117 -118 117c-66 0 -119 -53 -119 -119v-304h-70v493h70v-48z" />
    <glyph glyph-name="n" unicode="n" horiz-adv-x="463" 
d="M43 493h71v-46c33 31 72 46 117 46c104 0 189 -85 189 -189v-304h-71v304c0 64 -53 118 -117 118s-118 -54 -118 -118v-304h-71v493z" />
    <glyph glyph-name="o" unicode="o" horiz-adv-x="435" 
d="M100 184c0 -64 54 -118 118 -118s117 54 117 118v125c0 64 -53 118 -117 118s-118 -54 -118 -118v-125zM406 184c0 -104 -83 -189 -188 -189c-104 0 -189 85 -189 189v125c0 104 85 189 189 189c105 0 188 -85 188 -189v-125z" />
    <glyph glyph-name="p" unicode="p" horiz-adv-x="444" 
d="M345 304c0 64 -54 118 -118 118s-118 -54 -118 -118v-115c0 -64 54 -118 118 -118s118 54 118 118v115zM109 493v-46c33 31 73 46 118 46c104 0 189 -85 189 -189v-115c0 -104 -85 -189 -189 -189c-45 0 -85 15 -118 46v-249h-70v696h70z" />
    <glyph glyph-name="q" unicode="q" horiz-adv-x="444" 
d="M336 304c0 64 -54 118 -118 118s-118 -54 -118 -118v-115c0 -64 54 -118 118 -118s118 54 118 118v115zM406 -203h-70v249c-33 -31 -73 -46 -118 -46c-104 0 -189 85 -189 189v115c0 104 85 189 189 189c45 0 85 -15 118 -46v46h70v-696z" />
    <glyph glyph-name="r" unicode="r" horiz-adv-x="380" 
d="M43 493h71v-46c33 31 72 46 117 46c51 0 96 -19 135 -56l-51 -52c-23 25 -51 37 -84 37c-64 0 -117 -54 -117 -118v-304h-71v493z" />
    <glyph glyph-name="s" unicode="s" horiz-adv-x="343" 
d="M76 128c23 -40 65 -64 100 -64c40 0 71 31 71 70c0 33 -20 59 -61 77l-52 23c-80 35 -111 82 -111 134c0 74 64 130 142 130c71 0 132 -38 163 -102l-64 -30c-23 39 -59 61 -100 61c-39 0 -70 -26 -70 -61c0 -23 16 -46 64 -67l58 -26c71 -31 103 -73 103 -138
c0 -80 -62 -140 -144 -140c-71 0 -130 38 -163 102z" />
    <glyph glyph-name="t" unicode="t" horiz-adv-x="287" 
d="M158 129c0 -32 25 -58 58 -58h18v-71h-18c-72 0 -129 57 -129 129v293h-58v71h58v203h71v-203h99v-71h-99v-293z" />
    <glyph glyph-name="u" unicode="u" horiz-adv-x="463" 
d="M420 0h-71v46c-33 -31 -72 -46 -117 -46c-104 0 -189 85 -189 188v305h71v-305c0 -64 53 -117 117 -117s118 53 118 117v305h71v-493z" />
    <glyph glyph-name="v" unicode="v" horiz-adv-x="407" 
d="M314 493h78l-153 -493h-70l-153 493h78l110 -382z" />
    <glyph glyph-name="w" unicode="w" horiz-adv-x="685" 
d="M480 103l114 390h75l-154 -493h-72l-100 385l-100 -385h-72l-154 493h75l113 -390l99 390h78z" />
    <glyph glyph-name="x" unicode="x" horiz-adv-x="454" 
d="M93 0h-84l176 247l-176 246h84l133 -188l134 188h84l-176 -246l176 -247h-84l-134 188z" />
    <glyph glyph-name="y" unicode="y" horiz-adv-x="444" 
d="M11 493h77l132 -374l136 374h76l-217 -598c-23 -61 -74 -95 -147 -98v75c43 2 69 17 80 46l36 100z" />
    <glyph glyph-name="z" unicode="z" horiz-adv-x="407" 
d="M378 422l-262 -351h262v-71h-348v71l262 351h-262v71h348v-71z" />
    <glyph glyph-name="braceleft" unicode="{" horiz-adv-x="259" 
d="M29 383h15c31 0 55 24 55 56v132c0 71 51 122 126 125v-70c-33 -1 -56 -23 -56 -55v-132c0 -39 -17 -69 -50 -91c33 -22 50 -52 50 -91v-132c0 -32 23 -54 56 -55v-70c-75 3 -126 54 -126 125v132c0 32 -24 56 -55 56h-15v70z" />
    <glyph glyph-name="bar" unicode="|" horiz-adv-x="176" 
d="M126 696v-899h-77v899h77z" />
    <glyph glyph-name="braceright" unicode="}" horiz-adv-x="259" 
d="M215 313c-31 0 -55 -24 -55 -56v-132c0 -71 -51 -122 -126 -125v70c33 1 56 23 56 55v132c0 39 17 69 50 91c-33 22 -50 52 -50 91v132c0 32 -23 54 -56 55v70c75 -3 126 -54 126 -125v-132c0 -32 24 -56 55 -56h15v-70h-15z" />
    <glyph glyph-name="asciitilde" unicode="~" horiz-adv-x="324" 
d="M308 627c-20 -41 -52 -66 -99 -66c-23 0 -32 3 -71 23c-9 5 -18 8 -26 8h-3c-19 0 -33 -14 -42 -30l-52 26c19 35 53 66 98 66c21 0 34 -3 61 -18c20 -11 27 -13 38 -13c17 0 32 10 43 29z" />
    <glyph glyph-name="Adieresis" unicode="&#xc4;" horiz-adv-x="602" 
d="M420 868v-84h-84v84h84zM266 868v-84h-84v84h84zM301 591l-124 -359h249zM150 155l-54 -155h-81l247 696h78l247 -696h-81l-54 155h-302z" />
    <glyph glyph-name="Aring" unicode="&#xc5;" horiz-adv-x="602" 
d="M302 897c-31 0 -57 -25 -57 -56s25 -56 56 -56s56 25 56 56s-24 56 -55 56zM302 928c47 0 86 -40 86 -87c0 -48 -39 -87 -87 -87s-87 39 -87 88c0 47 40 86 88 86zM301 591l-124 -359h249zM150 155l-54 -155h-81l247 696h78l247 -696h-81l-54 155h-302z" />
    <glyph glyph-name="Ccedilla" unicode="&#xc7;" 
d="M282 -26c39 -4 68 -34 68 -73s-33 -72 -72 -72h-51v43h51c16 0 29 14 29 29c0 17 -13 30 -29 30h-47l12 63c-121 11 -211 112 -211 231v246c0 129 105 232 232 232c104 0 198 -70 225 -172c5 -20 7 -33 7 -60h-77c-3 91 -68 155 -154 155c-85 0 -156 -71 -156 -155v-246
c0 -84 71 -155 155 -155c86 0 152 64 155 155h77c0 -120 -91 -221 -210 -232z" />
    <glyph glyph-name="Eacute" unicode="&#xc9;" horiz-adv-x="546" 
d="M350 899l-87 -131h-55l73 131h69zM128 619v-232h271v-78h-271v-232h387v-77h-464v696h464v-77h-387z" />
    <glyph glyph-name="Ntilde" unicode="&#xd1;" horiz-adv-x="565" 
d="M428 820c-21 -44 -54 -66 -98 -66c-21 0 -35 4 -59 17c-23 12 -31 15 -43 15c-15 0 -29 -10 -40 -31l-52 26c23 44 55 66 98 66c20 0 33 -3 60 -18c23 -11 28 -13 39 -13c19 0 31 7 43 30zM128 696l310 -549v549h77v-696h-77l-310 549v-549h-77v696h77z" />
    <glyph glyph-name="Odieresis" unicode="&#xd6;" 
d="M383 868v-84h-84v84h84zM229 868v-84h-84v84h84zM419 471c0 86 -69 155 -155 155s-155 -69 -155 -155v-246c0 -84 71 -155 155 -155s155 71 155 155v246zM32 471c0 129 105 232 232 232c129 0 232 -103 232 -232v-246c0 -127 -103 -232 -232 -232
c-127 0 -232 105 -232 232v246z" />
    <glyph glyph-name="Udieresis" unicode="&#xdc;" horiz-adv-x="565" 
d="M401 868v-84h-84v84h84zM247 868v-84h-84v84h84zM127 696v-471c0 -84 71 -155 155 -155s155 71 155 155v471h77v-471c0 -127 -103 -232 -232 -232c-127 0 -232 105 -232 232v471h77z" />
    <glyph glyph-name="aacute" unicode="&#xe1;" horiz-adv-x="444" 
d="M174 219c-41 0 -74 -33 -74 -74s33 -74 74 -74h42c68 0 119 64 119 148h-161zM335 309c0 64 -54 118 -118 118c-47 0 -89 -29 -108 -73l-66 27c32 73 98 117 175 117c105 0 188 -85 188 -189v-309h-72v61c-30 -41 -69 -61 -118 -61h-42c-80 0 -145 65 -145 145
s65 145 145 145h161v19zM299 696l-87 -130h-55l72 130h70z" />
    <glyph glyph-name="agrave" unicode="&#xe0;" horiz-adv-x="444" 
d="M174 219c-41 0 -74 -33 -74 -74s33 -74 74 -74h42c68 0 119 64 119 148h-161zM335 309c0 64 -54 118 -118 118c-47 0 -89 -29 -108 -73l-66 27c32 73 98 117 175 117c105 0 188 -85 188 -189v-309h-72v61c-30 -41 -69 -61 -118 -61h-42c-80 0 -145 65 -145 145
s65 145 145 145h161v19zM288 566h-55l-87 130h69z" />
    <glyph glyph-name="acircumflex" unicode="&#xe2;" horiz-adv-x="444" 
d="M174 219c-41 0 -74 -33 -74 -74s33 -74 74 -74h42c68 0 119 64 119 148h-161zM335 309c0 64 -54 118 -118 118c-47 0 -89 -29 -108 -73l-66 27c32 73 98 117 175 117c105 0 188 -85 188 -189v-309h-72v61c-30 -41 -69 -61 -118 -61h-42c-80 0 -145 65 -145 145
s65 145 145 145h161v19zM261 696l81 -130h-69l-51 76l-51 -76h-68l80 130h78z" />
    <glyph glyph-name="adieresis" unicode="&#xe4;" horiz-adv-x="444" 
d="M174 219c-41 0 -74 -33 -74 -74s33 -74 74 -74h42c68 0 119 64 119 148h-161zM335 309c0 64 -54 118 -118 118c-47 0 -89 -29 -108 -73l-66 27c32 73 98 117 175 117c105 0 188 -85 188 -189v-309h-72v61c-30 -41 -69 -61 -118 -61h-42c-80 0 -145 65 -145 145
s65 145 145 145h161v19zM341 665v-84h-84v84h84zM187 665v-84h-84v84h84z" />
    <glyph glyph-name="atilde" unicode="&#xe3;" horiz-adv-x="444" 
d="M174 219c-41 0 -74 -33 -74 -74s33 -74 74 -74h42c68 0 119 64 119 148h-161zM335 309c0 64 -54 118 -118 118c-47 0 -89 -29 -108 -73l-66 27c32 73 98 117 175 117c105 0 188 -85 188 -189v-309h-72v61c-30 -41 -69 -61 -118 -61h-42c-80 0 -145 65 -145 145
s65 145 145 145h161v19zM368 627c-22 -44 -55 -66 -98 -66c-21 0 -35 4 -59 17c-23 12 -28 14 -39 14h-3c-17 0 -29 -7 -41 -30l-52 26c23 44 55 66 98 66c20 0 33 -5 60 -18c21 -11 28 -13 39 -13c17 0 32 10 43 29z" />
    <glyph glyph-name="aring" unicode="&#xe5;" horiz-adv-x="444" 
d="M174 219c-41 0 -74 -33 -74 -74s33 -74 74 -74h42c68 0 119 64 119 148h-161zM335 309c0 64 -54 118 -118 118c-47 0 -89 -29 -108 -73l-66 27c32 73 98 117 175 117c105 0 188 -85 188 -189v-309h-72v61c-30 -41 -69 -61 -118 -61h-42c-80 0 -145 65 -145 145
s65 145 145 145h161v19zM223 694c-31 0 -57 -24 -57 -55c0 -32 25 -57 56 -57s56 25 56 56s-26 56 -55 56zM223 725c47 0 86 -40 86 -87c0 -48 -39 -87 -87 -87s-87 40 -87 88c0 47 40 86 88 86z" />
    <glyph glyph-name="ccedilla" unicode="&#xe7;" horiz-adv-x="435" 
d="M235 -26c39 -4 68 -34 68 -73s-33 -72 -72 -72h-51v43h51c15 0 29 14 29 29c0 16 -14 30 -29 30h-47l12 65c-96 11 -167 92 -167 188v125c0 104 85 189 189 189s185 -79 188 -189h-71c-3 68 -52 118 -117 118c-64 0 -118 -54 -118 -118v-125c0 -64 54 -118 118 -118
c65 0 114 50 117 118h71c0 -97 -72 -177 -167 -188z" />
    <glyph glyph-name="eacute" unicode="&#xe9;" horiz-adv-x="435" 
d="M336 306c0 69 -53 121 -117 121c-68 0 -115 -50 -118 -121h235zM101 184c0 -64 53 -118 117 -118c34 0 63 13 86 38l50 -51c-36 -39 -84 -58 -136 -58c-103 0 -188 85 -188 189v125c0 104 85 189 188 189c104 0 189 -85 189 -189v-71h-306v-54zM295 696l-87 -130h-55
l72 130h70z" />
    <glyph glyph-name="egrave" unicode="&#xe8;" horiz-adv-x="435" 
d="M336 306c0 69 -53 121 -117 121c-68 0 -115 -50 -118 -121h235zM101 184c0 -64 53 -118 117 -118c34 0 63 13 86 38l50 -51c-36 -39 -84 -58 -136 -58c-103 0 -188 85 -188 189v125c0 104 85 189 188 189c104 0 189 -85 189 -189v-71h-306v-54zM283 566h-55l-87 130h70z
" />
    <glyph glyph-name="ecircumflex" unicode="&#xea;" horiz-adv-x="444" 
d="M336 306c0 69 -53 121 -117 121c-68 0 -115 -50 -118 -121h235zM101 184c0 -64 53 -118 117 -118c34 0 63 13 86 38l50 -51c-36 -39 -84 -58 -136 -58c-103 0 -188 85 -188 189v125c0 104 85 189 188 189c104 0 189 -85 189 -189v-71h-306v-54zM257 696l80 -130h-68
l-51 76l-51 -76h-69l81 130h78z" />
    <glyph glyph-name="edieresis" unicode="&#xeb;" horiz-adv-x="435" 
d="M336 306c0 69 -53 121 -117 121c-68 0 -115 -50 -118 -121h235zM101 184c0 -64 53 -118 117 -118c34 0 63 13 86 38l50 -51c-36 -39 -84 -58 -136 -58c-103 0 -188 85 -188 189v125c0 104 85 189 188 189c104 0 189 -85 189 -189v-71h-306v-54zM337 665v-84h-84v84h84z
M183 665v-84h-84v84h84z" />
    <glyph glyph-name="iacute" unicode="&#xed;" horiz-adv-x="167" 
d="M119 493v-493h-71v493h71zM160 696l-87 -130h-55l72 130h70z" />
    <glyph glyph-name="igrave" unicode="&#xec;" horiz-adv-x="167" 
d="M119 493v-493h-71v493h71zM149 566h-55l-87 130h70z" />
    <glyph glyph-name="icircumflex" unicode="&#xee;" horiz-adv-x="167" 
d="M119 493v-493h-71v493h71zM122 696l81 -130h-69l-50 76l-51 -76h-69l80 130h78z" />
    <glyph glyph-name="idieresis" unicode="&#xef;" horiz-adv-x="167" 
d="M119 493v-493h-71v493h71zM203 665v-84h-84v84h84zM49 665v-84h-84v84h84z" />
    <glyph glyph-name="ntilde" unicode="&#xf1;" horiz-adv-x="463" 
d="M43 493h71v-46c33 31 72 46 117 46c104 0 189 -85 189 -189v-304h-71v304c0 64 -53 118 -117 118s-118 -54 -118 -118v-304h-71v493zM378 627c-23 -44 -56 -66 -99 -66c-23 0 -32 3 -71 23c-9 5 -18 8 -26 8h-3c-19 0 -30 -7 -42 -30l-52 26c23 44 55 66 98 66
c21 0 34 -3 61 -18c20 -11 27 -13 38 -13c17 0 32 10 43 29z" />
    <glyph glyph-name="oacute" unicode="&#xf3;" horiz-adv-x="435" 
d="M100 184c0 -64 54 -118 118 -118s117 54 117 118v125c0 64 -53 118 -117 118s-118 -54 -118 -118v-125zM406 184c0 -104 -83 -189 -188 -189c-104 0 -189 85 -189 189v125c0 104 85 189 189 189c105 0 188 -85 188 -189v-125zM294 696l-87 -130h-55l73 130h69z" />
    <glyph glyph-name="ograve" unicode="&#xf2;" horiz-adv-x="435" 
d="M100 184c0 -64 54 -118 118 -118s117 54 117 118v125c0 64 -53 118 -117 118s-118 -54 -118 -118v-125zM406 184c0 -104 -83 -189 -188 -189c-104 0 -189 85 -189 189v125c0 104 85 189 189 189c105 0 188 -85 188 -189v-125zM283 566h-55l-87 130h69z" />
    <glyph glyph-name="ocircumflex" unicode="&#xf4;" horiz-adv-x="435" 
d="M100 184c0 -64 54 -118 118 -118s117 54 117 118v125c0 64 -53 118 -117 118s-118 -54 -118 -118v-125zM406 184c0 -104 -83 -189 -188 -189c-104 0 -189 85 -189 189v125c0 104 85 189 189 189c105 0 188 -85 188 -189v-125zM256 696l81 -130h-69l-51 76l-50 -76h-69
l80 130h78z" />
    <glyph glyph-name="odieresis" unicode="&#xf6;" horiz-adv-x="435" 
d="M100 184c0 -64 54 -118 118 -118s117 54 117 118v125c0 64 -53 118 -117 118s-118 -54 -118 -118v-125zM406 184c0 -104 -83 -189 -188 -189c-104 0 -189 85 -189 189v125c0 104 85 189 189 189c105 0 188 -85 188 -189v-125zM336 665v-84h-84v84h84zM183 665v-84h-84v84
h84z" />
    <glyph glyph-name="otilde" unicode="&#xf5;" horiz-adv-x="435" 
d="M100 184c0 -64 54 -118 118 -118s117 54 117 118v125c0 64 -53 118 -117 118s-118 -54 -118 -118v-125zM406 184c0 -104 -83 -189 -188 -189c-104 0 -189 85 -189 189v125c0 104 85 189 189 189c105 0 188 -85 188 -189v-125zM364 627c-23 -44 -56 -66 -99 -66
c-23 0 -32 3 -71 23c-9 5 -18 8 -26 8h-3c-19 0 -30 -7 -42 -30l-52 26c23 44 55 66 98 66c21 0 34 -3 61 -18c20 -11 27 -13 38 -13c17 0 32 10 43 29z" />
    <glyph glyph-name="uacute" unicode="&#xfa;" horiz-adv-x="463" 
d="M420 0h-71v46c-33 -31 -72 -46 -117 -46c-104 0 -189 85 -189 188v305h71v-305c0 -64 53 -117 117 -117s118 53 118 117v305h71v-493zM308 696l-87 -130h-55l73 130h69z" />
    <glyph glyph-name="ugrave" unicode="&#xf9;" horiz-adv-x="463" 
d="M420 0h-71v46c-33 -31 -72 -46 -117 -46c-104 0 -189 85 -189 188v305h71v-305c0 -64 53 -117 117 -117s118 53 118 117v305h71v-493zM297 566h-55l-87 130h69z" />
    <glyph glyph-name="ucircumflex" unicode="&#xfb;" horiz-adv-x="463" 
d="M420 0h-71v46c-33 -31 -72 -46 -117 -46c-104 0 -189 85 -189 188v305h71v-305c0 -64 53 -117 117 -117s118 53 118 117v305h71v-493zM271 696l80 -130h-69l-51 76l-50 -76h-69l81 130h78z" />
    <glyph glyph-name="udieresis" unicode="&#xfc;" horiz-adv-x="463" 
d="M420 0h-71v46c-33 -31 -72 -46 -117 -46c-104 0 -189 85 -189 188v305h71v-305c0 -64 53 -117 117 -117s118 53 118 117v305h71v-493zM350 665v-84h-84v84h84zM197 665v-84h-84v84h84z" />
    <glyph glyph-name="degree" unicode="&#xb0;" horiz-adv-x="231" 
d="M117 694c-31 0 -57 -25 -57 -56s25 -56 56 -56s56 25 56 56s-26 56 -55 56zM117 725c47 0 86 -40 86 -87c0 -48 -39 -87 -87 -87s-87 39 -87 88c0 47 40 86 88 86z" />
    <glyph glyph-name="cent" unicode="&#xa2;" horiz-adv-x="435" 
d="M251 523c-12 4 -23 6 -33 6c-64 0 -118 -58 -118 -118v-126c0 -39 25 -75 42 -90zM118 125c-56 35 -89 95 -89 160v126c0 104 85 189 189 189c19 0 37 -3 56 -9l38 112l44 -14l-40 -118c56 -35 90 -93 90 -160h-71c0 36 -14 66 -42 90l-110 -328c13 -4 25 -6 35 -6
c62 0 114 49 117 118h71c-5 -110 -83 -189 -190 -189c-18 0 -37 3 -56 9l-37 -112l-44 15z" />
    <glyph glyph-name="sterling" unicode="&#xa3;" horiz-adv-x="444" 
d="M31 313v70h69c-7 17 -6 18 -13 31c-20 48 -27 77 -27 108c0 99 82 181 182 181s173 -75 181 -181h-70c-3 65 -48 111 -112 111s-111 -50 -111 -118c0 -27 7 -47 26 -93c5 -12 9 -23 16 -39h135v-70h-111c7 -29 10 -55 10 -77c0 -57 -15 -99 -51 -143c11 3 15 2 22 2
c19 0 40 -5 63 -14c40 -19 43 -18 59 -18c33 0 64 17 93 52l46 -50c-39 -47 -88 -72 -141 -72c-23 0 -40 4 -67 16c-35 15 -48 19 -67 19c-26 0 -53 -12 -80 -35l-48 57c74 61 101 112 101 189c0 24 -3 43 -10 74h-95z" />
    <glyph glyph-name="section" unicode="&#xa7;" horiz-adv-x="481" 
d="M177 353c-17 5 -31 12 -42 21c-20 -22 -30 -47 -30 -76c0 -47 29 -89 73 -105l126 -45c16 -5 30 -12 42 -21c20 21 30 47 30 76c0 47 -29 89 -74 105zM327 373c72 -27 119 -94 119 -170c0 -47 -19 -92 -52 -127c19 -33 29 -66 29 -99c0 -98 -82 -180 -180 -180
c-104 0 -179 79 -182 189h70c0 -71 52 -119 111 -119c60 0 111 51 111 111c0 47 -29 89 -74 105l-125 45c-87 32 -119 115 -119 170c0 47 19 92 52 127c-19 33 -29 66 -29 99c0 98 82 180 181 180c103 0 178 -79 181 -189h-70c-3 72 -47 119 -112 119
c-60 0 -111 -51 -111 -111c0 -48 34 -90 74 -105z" />
    <glyph glyph-name="paragraph" unicode="&#xb6;" horiz-adv-x="509" 
d="M232 292c-114 3 -201 90 -201 202c0 111 90 202 201 202h232v-899h-56v843h-120v-843h-56v495z" />
    <glyph glyph-name="germandbls" unicode="&#xdf;" horiz-adv-x="454" 
d="M165 397h57c64 0 117 53 117 119c0 64 -53 116 -117 116s-118 -53 -118 -117v-515h-71v515c0 105 85 188 189 188c103 0 188 -83 188 -187c0 -59 -24 -109 -73 -150c57 -39 88 -95 88 -159v-18c0 -104 -85 -189 -188 -189c-27 0 -55 7 -84 20l30 64c21 -11 33 -13 52 -13
c67 0 118 51 118 118v18c0 66 -52 119 -117 119h-71v71z" />
    <glyph glyph-name="registered" unicode="&#xae;" horiz-adv-x="768" 
d="M390 668c-180 0 -325 -141 -325 -317c0 -180 142 -322 320 -322c176 0 319 143 319 320c0 173 -143 319 -314 319zM390 704c191 0 350 -163 350 -355c0 -197 -159 -356 -355 -356c-197 0 -356 160 -356 358c0 196 161 353 361 353zM412 346c52 0 92 40 92 92
s-40 92 -92 92h-118v-184h118zM566 104h-64l-92 180h-116v-180h-62v488h180c85 0 154 -69 154 -154c0 -64 -37 -119 -97 -143z" />
    <glyph glyph-name="copyright" unicode="&#xa9;" horiz-adv-x="768" 
d="M390 668c-180 0 -325 -141 -325 -317c0 -180 142 -322 320 -322c176 0 319 143 319 320c0 173 -143 319 -314 319zM390 704c191 0 350 -163 350 -355c0 -197 -159 -356 -355 -356c-197 0 -356 160 -356 358c0 196 161 353 361 353zM490 430c-3 60 -45 103 -105 103
c-58 0 -105 -46 -105 -103v-164c0 -57 47 -103 105 -103c60 0 102 43 105 103h62c-3 -96 -75 -165 -167 -165s-167 74 -167 165v164c0 91 75 165 167 165s164 -69 167 -165h-62z" />
    <glyph glyph-name="acute" unicode="&#xb4;" horiz-adv-x="185" 
d="M169 696l-87 -130h-55l72 130h70z" />
    <glyph glyph-name="dieresis" unicode="&#xa8;" horiz-adv-x="315" 
d="M277 665v-84h-84v84h84zM123 665v-84h-84v84h84z" />
    <glyph glyph-name="AE" unicode="&#xc6;" horiz-adv-x="907" 
d="M431 232v387h-132l-129 -387h261zM93 0h-78l232 696h628v-77h-367v-232h251v-77h-251v-233h367v-77h-444v155h-287z" />
    <glyph glyph-name="Oslash" unicode="&#xd8;" 
d="M378 576c-31 33 -69 50 -114 50c-84 0 -155 -71 -155 -155v-246c0 -23 4 -44 13 -62zM150 120c31 -33 69 -50 114 -50c84 0 155 71 155 155v246c0 23 -4 39 -13 62zM457 703l39 -24l-44 -72c29 -41 44 -87 44 -136v-246c0 -127 -103 -232 -232 -232
c-57 0 -113 21 -156 60l-37 -60l-39 24l44 72c-29 41 -44 86 -44 136v246c0 129 105 232 232 232c59 0 111 -20 156 -60z" />
    <glyph glyph-name="plusminus" unicode="&#xb1;" 
d="M496 101h-464v77h464v-77zM496 457v-74h-195v-145h-74v145h-195v74h195v145h74v-145h195z" />
    <glyph glyph-name="yen" unicode="&#xa5;" horiz-adv-x="491" 
d="M283 0h-77v194h-149v54h149v85h-149v54h127l-171 309h78l154 -279l154 279h78l-172 -309h128v-54h-150v-85h150v-54h-150v-194z" />
    <glyph glyph-name="mu" unicode="&#xb5;" horiz-adv-x="509" 
d="M463 0c-39 0 -72 19 -98 57c-37 -38 -83 -57 -140 -57c-39 0 -77 15 -112 45v-248h-70v696h70v-304c0 -66 53 -119 119 -119c64 0 118 53 118 119v304h70v-379c0 -24 20 -44 43 -44h29v-70h-29z" />
    <glyph glyph-name="mu" unicode="&#x3bc;" horiz-adv-x="509" 
d="M463 0c-39 0 -72 19 -98 57c-37 -38 -83 -57 -140 -57c-39 0 -77 15 -112 45v-248h-70v696h70v-304c0 -66 53 -119 119 -119c64 0 118 53 118 119v304h70v-379c0 -24 20 -44 43 -44h29v-70h-29z" />
    <glyph glyph-name="ordfeminine" unicode="&#xaa;" horiz-adv-x="278" 
d="M31 312v46h216v-46h-216zM117 539c-23 0 -40 -18 -40 -39c0 -23 17 -40 40 -40h21c21 0 41 11 52 28c9 13 11 20 10 51h-83zM205 414v32c-18 -21 -40 -32 -67 -32h-21c-48 0 -87 39 -87 86s39 86 87 86h83c-1 41 -25 66 -61 66c-27 0 -46 -13 -58 -40l-43 19
c20 43 57 68 100 68c61 0 109 -49 109 -109v-176h-42z" />
    <glyph glyph-name="ordmasculine" unicode="&#xba;" horiz-adv-x="278" 
d="M31 312v46h216v-46h-216zM77 521c0 -35 27 -62 62 -62s62 27 62 62v70c0 35 -27 62 -62 62s-62 -27 -62 -62v-70zM247 521c0 -60 -48 -108 -108 -108s-108 48 -108 108v70c0 60 48 108 108 108s108 -48 108 -108v-70z" />
    <glyph glyph-name="ae" unicode="&#xe6;" horiz-adv-x="704" 
d="M604 308c-1 71 -46 120 -110 120s-108 -49 -111 -120h221zM171 220c-41 0 -75 -34 -75 -75c0 -43 32 -75 75 -75h30c64 0 112 65 112 150h-142zM37 382c27 69 93 116 166 116c60 0 114 -28 147 -75c35 47 88 75 144 75c100 0 180 -85 180 -188v-70h-291v-52
c0 -64 51 -118 112 -118c33 0 62 12 85 37l49 -49c-39 -39 -83 -58 -134 -58c-62 0 -112 28 -150 83c-37 -52 -91 -83 -144 -83h-30c-80 0 -145 65 -145 145s65 145 145 145h142v20c0 25 -1 35 -8 52c-17 40 -56 67 -100 67c-47 0 -86 -28 -103 -72z" />
    <glyph glyph-name="oslash" unicode="&#xf8;" horiz-adv-x="435" 
d="M139 97c23 -21 50 -31 79 -31c64 0 117 54 117 118v125c0 17 -3 33 -10 48zM296 397c-23 20 -50 30 -79 30c-64 0 -117 -54 -117 -118v-125c0 -16 3 -32 10 -48zM65 73c-24 35 -36 72 -36 111v125c0 104 85 189 188 189c45 0 85 -14 121 -43l30 43l38 -27l-36 -51
c25 -35 36 -70 36 -111v-125c0 -104 -83 -189 -188 -189c-43 0 -84 14 -121 43l-30 -43l-38 27z" />
    <glyph glyph-name="questiondown" unicode="&#xbf;" horiz-adv-x="463" 
d="M189 409v84h84v-84h-84zM427 -14c-5 -115 -87 -196 -196 -196c-108 0 -196 89 -196 198c0 41 13 78 38 112l105 142c14 20 14 24 14 96h78c0 -86 0 -101 -21 -127l-109 -146c-19 -25 -28 -51 -28 -78c0 -66 53 -120 119 -120c67 0 116 51 119 119h77z" />
    <glyph glyph-name="exclamdown" unicode="&#xa1;" horiz-adv-x="148" 
d="M31 493h84v-84h-84v84zM96 338l16 -541h-77l15 541h46z" />
    <glyph glyph-name="logicalnot" unicode="&#xac;" 
d="M416 167v285h-387v77h464v-362h-77z" />
    <glyph glyph-name="guillemotleft" unicode="&#xab;" horiz-adv-x="426" 
d="M334 493h78l-189 -247l189 -246h-78l-189 246zM199 493h77l-189 -247l189 -246h-77l-189 246z" />
    <glyph glyph-name="guillemotright" unicode="&#xbb;" horiz-adv-x="426" 
d="M90 0h-77l189 246l-189 247h77l189 -247zM226 0h-78l189 246l-189 247h78l189 -247z" />
    <glyph glyph-name="Agrave" unicode="&#xc0;" horiz-adv-x="602" 
d="M367 768h-55l-87 131h69zM301 591l-124 -359h249zM150 155l-54 -155h-81l247 696h78l247 -696h-81l-54 155h-302z" />
    <glyph glyph-name="Atilde" unicode="&#xc3;" horiz-adv-x="602" 
d="M447 820c-21 -44 -54 -66 -98 -66c-21 0 -35 4 -59 17c-23 12 -30 15 -43 15c-15 0 -29 -10 -40 -31l-52 26c23 44 55 66 98 66c20 0 33 -3 60 -18c23 -11 28 -13 39 -13c19 0 31 7 43 30zM301 591l-124 -359h249zM150 155l-54 -155h-81l247 696h78l247 -696h-81l-54 155
h-302z" />
    <glyph glyph-name="Otilde" unicode="&#xd5;" 
d="M410 820c-23 -44 -56 -66 -99 -66c-20 0 -34 4 -59 17c-23 12 -29 15 -41 15c-17 0 -30 -10 -41 -31l-53 26c23 44 56 66 99 66c23 0 32 -2 71 -23c11 -5 20 -8 28 -8c19 0 31 7 43 30zM419 471c0 86 -69 155 -155 155s-155 -69 -155 -155v-246c0 -84 71 -155 155 -155
s155 71 155 155v246zM32 471c0 129 105 232 232 232c129 0 232 -103 232 -232v-246c0 -127 -103 -232 -232 -232c-127 0 -232 105 -232 232v246z" />
    <glyph glyph-name="quotedblleft" unicode="&#x201c;" horiz-adv-x="306" 
d="M264 696v-84l-84 -84v168h84zM125 696v-84l-84 -84v168h84z" />
    <glyph glyph-name="quotedblright" unicode="&#x201d;" horiz-adv-x="306" 
d="M264 696v-84l-84 -84v168h84zM125 696v-84l-84 -84v168h84z" />
    <glyph glyph-name="quoteleft" unicode="&#x2018;" horiz-adv-x="167" 
d="M125 696v-84l-84 -84v168h84z" />
    <glyph glyph-name="quoteright" unicode="&#x2019;" horiz-adv-x="167" 
d="M125 696v-84l-84 -84v168h84z" />
    <glyph glyph-name="divide" unicode="&#xf7;" 
d="M264 228c29 0 53 -25 53 -54c0 -31 -23 -54 -54 -54s-54 25 -54 54c0 31 24 54 55 54zM264 576c29 0 53 -23 53 -54s-23 -54 -54 -54s-54 24 -54 55c0 29 24 53 55 53zM496 386v-77h-464v77h464z" />
    <glyph glyph-name="ydieresis" unicode="&#xff;" horiz-adv-x="444" 
d="M341 665v-84h-84v84h84zM187 665v-84h-84v84h84zM11 493h71l140 -384l139 384h71l-217 -598c-23 -61 -74 -95 -147 -98v71c44 2 72 19 84 50l34 94z" />
    <glyph glyph-name="periodcentered" unicode="&#xb7;" horiz-adv-x="213" 
d="M108 410c33 0 61 -27 61 -62s-27 -62 -62 -62s-62 27 -62 62s28 62 63 62z" />
    <glyph glyph-name="Acircumflex" unicode="&#xc2;" horiz-adv-x="602" 
d="M340 899l81 -131h-69l-51 77l-51 -77h-68l80 131h78zM301 591l-124 -359h249zM150 155l-54 -155h-81l247 696h78l247 -696h-81l-54 155h-302z" />
    <glyph glyph-name="Ecircumflex" unicode="&#xca;" horiz-adv-x="546" 
d="M313 899l80 -131h-69l-50 77l-51 -77h-69l81 131h78zM128 619v-232h271v-78h-271v-232h387v-77h-464v696h464v-77h-387z" />
    <glyph glyph-name="Aacute" unicode="&#xc1;" horiz-adv-x="602" 
d="M378 899l-87 -131h-55l72 131h70zM301 591l-124 -359h249zM150 155l-54 -155h-81l247 696h78l247 -696h-81l-54 155h-302z" />
    <glyph glyph-name="Edieresis" unicode="&#xcb;" horiz-adv-x="546" 
d="M392 868v-84h-84v84h84zM239 868v-84h-84v84h84zM128 619v-232h271v-78h-271v-232h387v-77h-464v696h464v-77h-387z" />
    <glyph glyph-name="Egrave" unicode="&#xc8;" horiz-adv-x="546" 
d="M339 768h-55l-87 131h69zM128 619v-232h271v-78h-271v-232h387v-77h-464v696h464v-77h-387z" />
    <glyph glyph-name="Oacute" unicode="&#xd3;" 
d="M341 899l-87 -131h-55l72 131h70zM419 471c0 86 -69 155 -155 155s-155 -69 -155 -155v-246c0 -84 71 -155 155 -155s155 71 155 155v246zM32 471c0 129 105 232 232 232c129 0 232 -103 232 -232v-246c0 -127 -103 -232 -232 -232c-127 0 -232 105 -232 232v246z" />
    <glyph glyph-name="Ocircumflex" unicode="&#xd4;" 
d="M303 899l80 -131h-68l-51 77l-51 -77h-69l81 131h78zM419 471c0 86 -69 155 -155 155s-155 -69 -155 -155v-246c0 -84 71 -155 155 -155s155 71 155 155v246zM32 471c0 129 105 232 232 232c129 0 232 -103 232 -232v-246c0 -127 -103 -232 -232 -232
c-127 0 -232 105 -232 232v246z" />
    <glyph glyph-name="Ograve" unicode="&#xd2;" 
d="M329 768h-55l-87 131h70zM419 471c0 86 -69 155 -155 155s-155 -69 -155 -155v-246c0 -84 71 -155 155 -155s155 71 155 155v246zM32 471c0 129 105 232 232 232c129 0 232 -103 232 -232v-246c0 -127 -103 -232 -232 -232c-127 0 -232 105 -232 232v246z" />
    <glyph glyph-name="Uacute" unicode="&#xda;" horiz-adv-x="565" 
d="M359 899l-87 -131h-55l72 131h70zM127 696v-471c0 -84 71 -155 155 -155s155 71 155 155v471h77v-471c0 -127 -103 -232 -232 -232c-127 0 -232 105 -232 232v471h77z" />
    <glyph glyph-name="Ucircumflex" unicode="&#xdb;" horiz-adv-x="565" 
d="M321 899l81 -131h-69l-51 77l-51 -77h-68l80 131h78zM127 696v-471c0 -84 71 -155 155 -155s155 71 155 155v471h77v-471c0 -127 -103 -232 -232 -232c-127 0 -232 105 -232 232v471h77z" />
    <glyph glyph-name="Ugrave" unicode="&#xd9;" horiz-adv-x="565" 
d="M347 768h-55l-87 131h70zM127 696v-471c0 -84 71 -155 155 -155s155 71 155 155v471h77v-471c0 -127 -103 -232 -232 -232c-127 0 -232 105 -232 232v471h77z" />
    <glyph glyph-name="macron" unicode="&#xaf;" horiz-adv-x="352" 
d="M321 582h-290v49h290v-49z" />
    <glyph glyph-name="cedilla" unicode="&#xb8;" horiz-adv-x="185" 
d="M81 -128c15 0 29 14 29 29c0 16 -14 30 -29 30h-47l15 79h42l-6 -36c39 -3 68 -34 68 -73s-33 -72 -72 -72h-51v43h51z" />
    <glyph glyph-name="hungarumlaut" unicode="&#x2dd;" horiz-adv-x="324" 
d="M308 0h-77l-213 696h77z" />
    <glyph glyph-name="ogonek" unicode="&#x2db;" horiz-adv-x="444" 
d="M299 696l-87 -130h-55l72 130h70zM11 493h71l140 -384l139 384h71l-217 -598c-23 -61 -74 -95 -147 -98v71c44 2 72 19 84 50l34 94z" />
    <glyph glyph-name="caron" unicode="&#x2c7;" horiz-adv-x="518" 
d="M434 575l52 -53l-174 -174l174 -174l-52 -53l-174 175l-174 -175l-53 53l174 174l-174 174l52 53l175 -175z" />
    <glyph glyph-name="cAC" unicode="&#x20ac;" horiz-adv-x="583" 
d="M289 463l-16 -72h-108v-84h124l-16 -72h-108v-10c0 -86 75 -155 155 -155c86 0 151 64 154 155h78c0 -15 -3 -41 -8 -60c-27 -101 -121 -172 -224 -172c-123 0 -232 105 -232 232v10h-77l15 72h62v84h-77l15 72h62v8c0 129 108 232 232 232c103 0 197 -70 224 -172
c5 -19 8 -41 8 -60h-78c-3 91 -67 155 -154 155c-83 0 -155 -69 -155 -155v-8h124z" />
    <glyph glyph-name="Iacute" unicode="&#xcd;" horiz-adv-x="176" 
d="M165 899l-87 -131h-55l72 131h70zM127 696v-696h-77v696h77z" />
    <glyph glyph-name="Icircumflex" unicode="&#xce;" horiz-adv-x="176" 
d="M127 899l81 -131h-69l-50 77l-51 -77h-69l80 131h78zM127 696v-696h-77v696h77z" />
    <glyph glyph-name="Idieresis" unicode="&#xcf;" horiz-adv-x="176" 
d="M207 868v-84h-84v84h84zM53 868v-84h-84v84h84zM126 696v-696h-77v696h77z" />
    <glyph glyph-name="Igrave" unicode="&#xcc;" horiz-adv-x="176" 
d="M153 768h-55l-87 131h70zM126 696v-696h-77v696h77z" />
    <glyph glyph-name="onehalf" unicode="&#xbd;" horiz-adv-x="611" 
d="M538 676l-421 -683l-43 26l421 684zM175 696v-348h-54v294h-76v54h130zM583 54v-54h-211v54l143 158c9 9 14 21 14 36c0 27 -23 50 -51 50c-29 0 -51 -22 -52 -51h-54c0 59 47 105 105 105s106 -47 106 -104c0 -28 -9 -52 -28 -73l-110 -121h138z" />
    <glyph glyph-name="onequarter" unicode="&#xbc;" horiz-adv-x="611" 
d="M538 676l-421 -683l-43 26l421 684zM175 696v-348h-54v294h-76v54h130zM513 100v176l-97 -176h97zM604 46h-37v-46h-54v46h-154v54l137 248h71v-248h37v-54z" />
    <glyph glyph-name="onesuperior" unicode="&#xb9;" horiz-adv-x="268" 
d="M174 696v-348h-54v294h-76v54h130z" />
    <glyph glyph-name="threequarters" unicode="&#xbe;" horiz-adv-x="611" 
d="M537 676l-420 -683l-44 26l421 684zM40 605c1 55 42 95 94 95c53 0 95 -43 95 -96c0 -31 -12 -55 -36 -73c29 -20 44 -48 44 -83c0 -59 -46 -104 -103 -104c-58 0 -102 46 -102 103h54c1 -28 21 -48 48 -48s48 22 48 50c0 29 -21 54 -48 54h-26v54h26c23 0 40 21 40 48
c0 23 -17 40 -40 40s-39 -17 -40 -40h-54zM512 100v176l-96 -176h96zM603 46h-37v-46h-54v46h-153v54l136 248h71v-248h37v-54z" />
    <glyph glyph-name="threesuperior" unicode="&#xb3;" horiz-adv-x="268" 
d="M40 605c1 55 42 95 94 95c53 0 95 -43 95 -96c0 -31 -12 -55 -36 -73c29 -20 44 -48 44 -83c0 -59 -46 -104 -103 -104c-58 0 -102 46 -102 103h54c1 -28 21 -48 48 -48s48 22 48 50c0 29 -21 54 -48 54h-26v54h26c23 0 40 21 40 48c0 23 -17 40 -40 40s-39 -17 -40 -40
h-54z" />
    <glyph glyph-name="twosuperior" unicode="&#xb2;" horiz-adv-x="268" 
d="M240 402v-54h-211v54l143 158c9 9 14 21 14 36c0 28 -23 51 -51 51c-29 0 -51 -21 -52 -52h-54c1 60 46 106 105 106c58 0 106 -46 106 -105c0 -28 -9 -52 -28 -73l-110 -121h138z" />
    <glyph glyph-name="brokenbar" unicode="&#xa6;" horiz-adv-x="176" 
d="M126 145v-348h-77v348h77zM126 696v-348h-77v348h77z" />
    <glyph glyph-name="multiply" unicode="&#xd7;" horiz-adv-x="518" 
d="M434 575l52 -53l-174 -174l174 -174l-52 -53l-174 175l-174 -175l-53 53l174 174l-174 174l52 53l175 -175z" />
    <glyph glyph-name="currency" unicode="&#xa4;" horiz-adv-x="602" 
d="M302 533c-104 0 -186 -81 -186 -185c0 -101 83 -184 185 -184c101 0 184 83 184 185c0 101 -83 184 -183 184zM153 546c46 33 95 49 148 49s104 -17 147 -49l84 84l50 -51l-84 -83c33 -46 49 -95 49 -148s-16 -102 -49 -147l84 -84l-50 -50l-84 84
c-41 -32 -94 -49 -147 -49c-54 0 -103 16 -148 49l-84 -84l-50 50l84 84c-31 43 -49 95 -49 148s16 101 49 146l-84 84l50 50z" />
    <glyph glyph-name="yacute" unicode="&#xfd;" horiz-adv-x="444" 
d="M299 696l-87 -130h-55l72 130h70zM11 493h71l140 -384l139 384h71l-217 -598c-23 -61 -74 -95 -147 -98v71c44 2 72 19 84 50l34 94z" />
    <glyph glyph-name="Eth" unicode="&#xd0;" horiz-adv-x="546" 
d="M127 77h155c86 0 155 69 155 155v232c0 86 -69 155 -155 155h-155v-248h155v-46h-155v-248zM21 325v46h29v325h232c129 0 232 -103 232 -232v-232c0 -129 -103 -232 -232 -232h-232v325h-29z" />
    <glyph glyph-name="minus" unicode="&#x2212;" 
d="M32 310v77h464v-77h-464z" />
    <glyph glyph-name="eth" unicode="&#xf0;" horiz-adv-x="435" 
d="M336 279c0 64 -54 118 -118 118s-118 -54 -118 -118v-98c0 -65 54 -117 118 -117s118 53 118 117v98zM200 493l-30 36l106 89c-19 11 -39 16 -59 16c-44 0 -78 -20 -103 -60l-60 35c39 61 95 94 163 94c43 0 81 -13 114 -38l45 38l30 -35l-42 -36c27 -32 42 -74 42 -117
v-334c0 -103 -85 -188 -189 -188c-103 0 -188 85 -188 188v98c0 103 84 189 186 189c44 0 84 -14 121 -43v90c0 27 -8 51 -25 72z" />
    <glyph glyph-name="Yacute" unicode="&#xdd;" horiz-adv-x="491" 
d="M284 0h-78v312l-193 384h81l151 -307l151 307h81l-193 -384v-312zM322 899l-87 -131h-55l72 131h70z" />
    <glyph glyph-name="thorn" unicode="&#xfe;" horiz-adv-x="444" 
d="M345 305c0 64 -53 117 -117 117c-66 0 -119 -53 -119 -117v-116c0 -64 54 -118 119 -118c64 0 117 54 117 118v116zM109 696v-251c34 32 74 48 119 48c103 0 188 -85 188 -188v-116c0 -104 -83 -189 -188 -189c-45 0 -85 16 -119 48v-251h-70v899h70z" />
    <glyph glyph-name="Thorn" unicode="&#xde;" horiz-adv-x="537" 
d="M281 193c84 0 155 69 155 155s-69 155 -155 155h-155v-310h155zM281 580c129 0 232 -103 232 -232c0 -127 -103 -232 -232 -232h-155v-116h-77v696h77v-116h155z" />
    <glyph glyph-name="c1" unicode="&#xfb01;" horiz-adv-x="463" 
d="M158 406v-406h-71v406h-58v71h58v90c0 72 57 129 129 129h58v-71h-58c-33 0 -58 -25 -58 -58v-90h100v-71h-100zM344 493h71v-493h-71v493zM337 696h84v-84h-84v84z" />
    <glyph glyph-name="c2" unicode="&#xfb02;" horiz-adv-x="500" 
d="M158 406v-406h-71v406h-58v71h58v90c0 72 57 129 129 129h58v-71h-58c-33 0 -58 -25 -58 -58v-90h100v-71h-100zM414 696v-567c0 -32 26 -58 58 -58h29v-71h-29c-72 0 -129 57 -129 129v567h71z" />
    <glyph glyph-name="ff" unicode="&#xfb00;" horiz-adv-x="592" 
d="M158 406v-406h-71v406h-58v71h58v90c0 72 57 129 129 129h58v-71h-58c-33 0 -58 -25 -58 -58v-90h100v-71h-100zM454 406v-406h-71v406h-58v71h58v90c0 72 57 129 129 129h58v-71h-58c-33 0 -58 -25 -58 -58v-90h100v-71h-100z" />
    <glyph glyph-name="ffi" unicode="&#xfb03;" horiz-adv-x="759" 
d="M158 406v-406h-71v406h-58v71h58v90c0 72 57 129 129 129h58v-71h-58c-33 0 -58 -25 -58 -58v-90h100v-71h-100zM454 406v-406h-71v406h-58v71h58v90c0 72 57 129 129 129h58v-71h-58c-33 0 -58 -25 -58 -58v-90h100v-71h-100zM640 493h71v-493h-71v493zM633 696h84v-84
h-84v84z" />
    <glyph glyph-name="ffl" unicode="&#xfb04;" horiz-adv-x="796" 
d="M158 406v-406h-71v406h-58v71h58v90c0 72 57 129 129 129h58v-71h-58c-33 0 -58 -25 -58 -58v-90h100v-71h-100zM454 406v-406h-71v406h-58v71h58v90c0 72 57 129 129 129h58v-71h-58c-33 0 -58 -25 -58 -58v-90h100v-71h-100zM710 696v-567c0 -32 26 -58 58 -58h29v-71
h-29c-72 0 -129 57 -129 129v567h71z" />
    </font>
</defs>
</svg>
